<svg id="delivered-worldwide" xmlns="http://www.w3.org/2000/svg" width="105.945" height="109.911" viewBox="0 0 105.945 109.911">
  <path id="Path_4203" data-name="Path 4203" d="M103.555,33.806,96.814,9.988l4.028-.493,18.169,23.678L117.86,46.9,101.335,66.551l-2.656.658L97.142,63.92l5.1-21.1Z" transform="translate(-78.014 -7.456)" fill="#738bb5"/>
  <path id="Path_4204" data-name="Path 4204" d="M53.93,134.012l2.875-2.523,36.888.23,3.616-.23,3.153,2.523-5.179,2.523-39.709,2.092-1.642-3.569Z" transform="translate(-44.336 -103.262)" fill="#738bb5"/>
  <g id="Group_2121" data-name="Group 2121">
    <path id="Path_4205" data-name="Path 4205" d="M101.023,27.379a48.03,48.03,0,0,0-34.186-14.16,1.61,1.61,0,0,0,0,3.22A44.934,44.934,0,0,1,96.323,27.432a26.356,26.356,0,0,0-23.1,20.1,3.907,3.907,0,0,1-3.812,3.007H68.93a4.442,4.442,0,0,0-4.437,4.437v9.678a4.442,4.442,0,0,0,4.437,4.437h9.678a4.442,4.442,0,0,0,4.437-4.437v-.39a3.924,3.924,0,0,1,3.919-3.919h7.062a25.3,25.3,0,0,0,17.23-6.757,45.275,45.275,0,0,1-1.365,21.5H92.125a1.61,1.61,0,0,0,0,3.22h16.616a45.282,45.282,0,0,1-33.668,27.628L71.752,91.193A10.564,10.564,0,0,1,82.058,78.308h3.627a1.61,1.61,0,1,0,0-3.22H82.058A13.784,13.784,0,0,0,68.611,91.9l3.268,14.507a45.38,45.38,0,0,1-5.042.283,44.866,44.866,0,0,1-18.6-4.012l3.583-17.022A12.492,12.492,0,0,0,39.6,70.593H22.618a45.2,45.2,0,0,1,6.547-33.882l0,0h2.653L26.806,56.871a4.094,4.094,0,0,0,7.029,3.711L52.742,36.707H56.08a16.952,16.952,0,0,0,9.475-2.883,3.443,3.443,0,0,0,0-5.719,16.953,16.953,0,0,0-9.474-2.883h-3.4a1.61,1.61,0,0,0-.182-.29l-3.74-4.723a44.79,44.79,0,0,1,12.1-3.377,1.61,1.61,0,0,0-.423-3.192A48,48,0,0,0,46.693,17.6L33.9,1.442c-.019-.024-.04-.048-.06-.071a4.093,4.093,0,0,0-7.029,3.711l5.009,20.14H21.97L19.9,22.175a3.116,3.116,0,0,0-2.581-1.368H12.362a3.119,3.119,0,0,0-2.371,5.145l4.282,5.013L9.991,35.977a3.119,3.119,0,0,0,2.371,5.145h4.959A3.116,3.116,0,0,0,19.9,39.754l2.068-3.047h3.394a48.35,48.35,0,1,0,75.658-9.328Zm-7,29.746H86.965a7.147,7.147,0,0,0-7.14,7.14v.39a1.218,1.218,0,0,1-1.217,1.217H68.93a1.219,1.219,0,0,1-1.217-1.217V54.976a1.219,1.219,0,0,1,1.217-1.217h.484a7.117,7.117,0,0,0,6.943-5.478A23.143,23.143,0,0,1,97.74,30.554l1.768-.086c6.869,5.416,10.868,19.229,10.913,19.395a22.1,22.1,0,0,1-16.394,7.262Zm-62.62,1.34a.874.874,0,0,1-.629.267.874.874,0,0,1-.848-1.085l5.2-20.917H48.617ZM63.761,30.779a.223.223,0,0,1,0,.371,13.743,13.743,0,0,1-7.681,2.337H21.707l-2.875-2.523,2.875-2.523H56.081A13.743,13.743,0,0,1,63.761,30.779ZM29.931,4.3a.874.874,0,0,1,.848-1.085.875.875,0,0,1,.629.267l17.21,21.735H35.109C35.1,25.134,29.931,4.3,29.931,4.3ZM17.268,24.027l1.7,2.5L16.55,28.672l-3.968-4.645h4.686Zm0,13.875H12.582l3.968-4.645L18.966,35.4ZM23.4,73.813H39.6a9.272,9.272,0,0,1,9.073,11.181l-3.409,16.2A45.333,45.333,0,0,1,23.4,73.813Z" transform="translate(-9.238)" fill="#707070"/>
  </g>
  <path id="Path_4206" data-name="Path 4206" d="M24.814,111.925H29.5l1.7,2.5-2.416,2.142Z" transform="translate(-21.471 -87.898)" fill="#738bb5"/>
  <path id="Path_4207" data-name="Path 4207" d="M24.814,159.565H29.5l1.7-2.5-2.416-2.142Z" transform="translate(-21.471 -121.663)" fill="#738bb5"/>
</svg>
