<svg id="outstanding-quality" xmlns="http://www.w3.org/2000/svg" width="109.56" height="109.56" viewBox="0 0 109.56 109.56">
  <path id="Path_4232" data-name="Path 4232" d="M879.259,165.645a31.8,31.8,0,1,0,31.8,31.8A31.8,31.8,0,0,0,879.259,165.645Zm1.146,44.44-5.9,2.131-3.77-1.475-7.294-6.474-3.114-5.409s2.458-4.589,2.7-4.917,5.081.983,5.081.983l6.392,5.245,11.063-12.948,6.884-4.1,3.9,1.577,1.835,5.553Z" transform="translate(-824.478 -143.34)" fill="#a8ad83"/>
  <path id="Path_4233" data-name="Path 4233" d="M846.179,105.7h-6.573a.226.226,0,0,1-.223-.165,45.483,45.483,0,0,0-5.518-13.311.224.224,0,0,1,.027-.278l4.661-4.661a3.423,3.423,0,0,0,0-4.842l-9.987-9.987a3.423,3.423,0,0,0-4.842,0l-4.661,4.661a.224.224,0,0,1-.278.027,45.483,45.483,0,0,0-13.311-5.518.226.226,0,0,1-.164-.223V64.83a3.427,3.427,0,0,0-3.423-3.423H787.761a3.427,3.427,0,0,0-3.423,3.423V71.4a.226.226,0,0,1-.165.223,45.489,45.489,0,0,0-13.311,5.518.223.223,0,0,1-.277-.027l-4.661-4.661a3.423,3.423,0,0,0-4.841,0L751.1,82.445a3.423,3.423,0,0,0,0,4.842l4.661,4.661a.224.224,0,0,1,.026.278,45.483,45.483,0,0,0-5.518,13.311.226.226,0,0,1-.223.165h-6.573a3.427,3.427,0,0,0-3.424,3.423v14.124a3.427,3.427,0,0,0,3.424,3.423h6.573a.226.226,0,0,1,.223.165,45.483,45.483,0,0,0,5.518,13.311.224.224,0,0,1-.026.278l-4.661,4.661a3.424,3.424,0,0,0,0,4.842l9.987,9.987a3.423,3.423,0,0,0,4.842,0l4.661-4.661a.223.223,0,0,1,.277-.027,45.489,45.489,0,0,0,13.312,5.518.226.226,0,0,1,.164.223v6.573a3.427,3.427,0,0,0,3.423,3.423h14.124a3.428,3.428,0,0,0,3.424-3.423v-6.573a.226.226,0,0,1,.165-.223,45.494,45.494,0,0,0,13.311-5.518.223.223,0,0,1,.277.027l4.661,4.661a3.423,3.423,0,0,0,4.841,0l2.356-2.356a1.6,1.6,0,1,0-2.264-2.265l-2.356,2.356a.22.22,0,0,1-.312,0l-4.661-4.661a3.417,3.417,0,0,0-4.22-.49,42.29,42.29,0,0,1-12.375,5.131,3.414,3.414,0,0,0-2.625,3.339v6.573a.221.221,0,0,1-.221.221H787.761a.221.221,0,0,1-.221-.221v-6.573a3.414,3.414,0,0,0-2.625-3.339A42.287,42.287,0,0,1,772.54,152.5a3.417,3.417,0,0,0-4.22.49l-4.661,4.661a.22.22,0,0,1-.312,0l-9.988-9.987a.22.22,0,0,1,0-.312l4.661-4.661a3.417,3.417,0,0,0,.49-4.22,42.28,42.28,0,0,1-5.131-12.376,3.415,3.415,0,0,0-3.339-2.625h-6.573a.221.221,0,0,1-.221-.221V109.125a.221.221,0,0,1,.221-.221h6.573a3.415,3.415,0,0,0,3.339-2.625A42.283,42.283,0,0,1,758.51,93.9a3.417,3.417,0,0,0-.49-4.22l-4.661-4.661a.22.22,0,0,1,0-.312l9.987-9.988a.22.22,0,0,1,.312,0l4.661,4.661a3.417,3.417,0,0,0,4.22.49,42.281,42.281,0,0,1,12.376-5.131,3.415,3.415,0,0,0,2.625-3.339V64.83a.221.221,0,0,1,.221-.221h14.124a.221.221,0,0,1,.221.221V71.4a3.415,3.415,0,0,0,2.625,3.339,42.281,42.281,0,0,1,12.376,5.131,3.417,3.417,0,0,0,4.22-.49l4.661-4.661a.22.22,0,0,1,.312,0l9.988,9.987a.22.22,0,0,1,0,.312l-4.661,4.661a3.417,3.417,0,0,0-.49,4.22,42.28,42.28,0,0,1,5.131,12.376,3.415,3.415,0,0,0,3.339,2.625h6.573a.221.221,0,0,1,.221.221v14.124a.221.221,0,0,1-.221.221h-6.573a3.415,3.415,0,0,0-3.339,2.625,42.28,42.28,0,0,1-5.131,12.376,3.417,3.417,0,0,0,.49,4.22l4.661,4.661a.22.22,0,0,1,0,.312l-2.383,2.383a1.6,1.6,0,0,0,2.265,2.265l2.383-2.383a3.423,3.423,0,0,0,0-4.842l-4.661-4.661a.224.224,0,0,1-.026-.278,45.489,45.489,0,0,0,5.518-13.311.226.226,0,0,1,.223-.165h6.573a3.427,3.427,0,0,0,3.423-3.423V109.124a3.428,3.428,0,0,0-3.424-3.423Z" transform="translate(-740.044 -61.407)" fill="#707070"/>
  <path id="Path_4234" data-name="Path 4234" d="M837.757,184.857a1.6,1.6,0,0,0-1.818,1.35,34.341,34.341,0,1,0,33.968-29.276,34.35,34.35,0,0,0-31.919,21.652l-.065.164a1.6,1.6,0,0,0,2.979,1.176l.063-.16a31.156,31.156,0,1,1-2.2,11.507,31.535,31.535,0,0,1,.336-4.595,1.6,1.6,0,0,0-1.35-1.818Z" transform="translate(-815.128 -136.491)" fill="#707070"/>
  <path id="Path_4235" data-name="Path 4235" d="M916.943,272.978c.066,0,.132,0,.2,0a6.95,6.95,0,0,0,4.88-2.22l17.938-19.429a6.909,6.909,0,1,0-10.153-9.374l-13.143,14.235-3.757-3.631a6.91,6.91,0,0,0-9.6,9.937l8.84,8.544a6.876,6.876,0,0,0,4.8,1.941Zm-11.506-18.03a3.712,3.712,0,0,1,5.242-.089l4.935,4.77a1.6,1.6,0,0,0,2.29-.065l14.254-15.439a3.707,3.707,0,1,1,5.447,5.029l-17.939,19.43a3.707,3.707,0,0,1-5.3.151l-8.84-8.544a3.712,3.712,0,0,1-.089-5.242Z" transform="translate(-866.713 -201.575)" fill="#707070"/>
</svg>
