<svg xmlns="http://www.w3.org/2000/svg" width="552.117" height="151.955" viewBox="0 0 552.117 151.955">
  <g id="Group_2405" data-name="Group 2405" transform="translate(-757.898 -4748.045)">
    <g id="Group_2404" data-name="Group 2404" transform="translate(768.486 4792)">
      <g id="Group_1937" data-name="Group 1937" transform="translate(443.955 25.606)">
        <line id="Line_98" data-name="Line 98" x1="32.673" transform="translate(0 1.907)" fill="none" stroke="#fff" stroke-width="1" stroke-dasharray="3"/>
        <line id="Line_97" data-name="Line 97" x1="32.673" fill="none" stroke="#fff" stroke-width="1" stroke-dasharray="3"/>
        <line id="Line_100" data-name="Line 100" y1="1.907" transform="translate(31.782)" fill="none" stroke="#fff" stroke-width="2"/>
      </g>
      <g id="Group_2081" data-name="Group 2081" transform="translate(30.467 4.63)" opacity="0.248">
        <line id="Line_92" data-name="Line 92" x2="405.542" transform="translate(2.861 65.472)" fill="none" stroke="#fff" stroke-width="2"/>
        <line id="Line_93" data-name="Line 93" y1="77.415" transform="translate(0.318)" fill="none" stroke="#fff" stroke-width="1" stroke-dasharray="3"/>
        <line id="Line_94" data-name="Line 94" y1="77.415" transform="translate(413.488)" fill="none" stroke="#fff" stroke-width="1" stroke-dasharray="3"/>
        <path id="Polygon_4" data-name="Polygon 4" d="M2096.175,2072.543l5.721-3.5v6.992Z" transform="translate(-2096.175 -2007.072)" fill="#fff"/>
        <path id="Polygon_5" data-name="Polygon 5" d="M2743.9,2072.543l-5.721,3.5v-6.992Z" transform="translate(-2330.091 -2007.072)" fill="#fff"/>
      </g>
      <g id="Group_1936" data-name="Group 1936" transform="translate(13.066 21.792)" opacity="0.248">
        <line id="Line_95" data-name="Line 95" x1="137.935" transform="translate(0 32.418)" fill="none" stroke="#fff" stroke-width="1" stroke-dasharray="3"/>
        <line id="Line_96" data-name="Line 96" x1="137.935" fill="none" stroke="#fff" stroke-width="1" stroke-dasharray="3"/>
        <line id="Line_99" data-name="Line 99" y1="27.333" transform="translate(5.006 2.543)" fill="none" stroke="#fff" stroke-width="2"/>
        <path id="Polygon_2" data-name="Polygon 2" d="M2074.671,1999.047l3.5,5.721h-6.992Z" transform="translate(-2069.666 -1998.73)" fill="#fff"/>
        <path id="Polygon_3" data-name="Polygon 3" d="M2074.671,2046.768l-3.5-5.721h6.992Z" transform="translate(-2069.666 -2014.032)" fill="#fff"/>
      </g>
      <g id="Thickness_mm_" data-name="Thickness mm " transform="translate(483.097 23.592)" style="isolation: isolate">
        <g id="Group_2094" data-name="Group 2094" style="isolation: isolate">
          <path id="Path_4125" data-name="Path 4125" d="M2810.286,2002.48h-1.756a.247.247,0,0,1-.275-.276v-.167a.244.244,0,0,1,.275-.276h4.331a.242.242,0,0,1,.268.276v.167a.245.245,0,0,1-.268.276h-1.756v4.908a.247.247,0,0,1-.275.275h-.277a.242.242,0,0,1-.268-.275Z" transform="translate(-2808.255 -2001.518)" fill="#fff"/>
          <path id="Path_4126" data-name="Path 4126" d="M2816.605,2002.038a.244.244,0,0,1,.277-.276h.259a.242.242,0,0,1,.268.276v1.915a2.411,2.411,0,0,1-.025.351h.016a1.753,1.753,0,0,1,1.58-.97c.995,0,1.455.544,1.455,1.622v2.433a.247.247,0,0,1-.276.275h-.259a.243.243,0,0,1-.276-.275v-2.25c0-.594-.126-1.061-.8-1.061a1.461,1.461,0,0,0-1.413,1.58v1.731a.241.241,0,0,1-.268.275h-.259a.244.244,0,0,1-.277-.275Z" transform="translate(-2811.298 -2001.518)" fill="#fff"/>
          <path id="Path_4127" data-name="Path 4127" d="M2824.1,2002.313v-.275a.244.244,0,0,1,.276-.276h.284a.248.248,0,0,1,.276.276v.275a.251.251,0,0,1-.276.276h-.284A.247.247,0,0,1,2824.1,2002.313Zm.008,1.4a.247.247,0,0,1,.276-.276h.26a.244.244,0,0,1,.276.276v3.679a.244.244,0,0,1-.276.275h-.26a.247.247,0,0,1-.276-.275Z" transform="translate(-2814.03 -2001.518)" fill="#fff"/>
          <path id="Path_4128" data-name="Path 4128" d="M2828.792,2004.234a2.235,2.235,0,0,1,1.4.451.241.241,0,0,1,.05.377l-.084.125c-.1.15-.217.159-.376.066a1.622,1.622,0,0,0-.945-.317,1.44,1.44,0,0,0-1.471,1.505,1.463,1.463,0,0,0,1.488,1.521,1.785,1.785,0,0,0,1.078-.384.235.235,0,0,1,.377.075l.066.125a.253.253,0,0,1-.075.368,2.365,2.365,0,0,1-1.5.518,2.216,2.216,0,1,1,0-4.432Z" transform="translate(-2814.915 -2002.42)" fill="#fff"/>
          <path id="Path_4129" data-name="Path 4129" d="M2833.7,2002.038a.244.244,0,0,1,.276-.276h.26a.242.242,0,0,1,.268.276v2.943h.61l1.028-1.372a.341.341,0,0,1,.327-.175h.309c.226,0,.3.15.167.334l-1.17,1.53v.017l1.354,2.015c.116.193.041.334-.185.334h-.334a.34.34,0,0,1-.326-.192l-1.154-1.789h-.627v1.706a.241.241,0,0,1-.268.275h-.26a.244.244,0,0,1-.276-.275Z" transform="translate(-2817.527 -2001.518)" fill="#fff"/>
          <path id="Path_4130" data-name="Path 4130" d="M2840.12,2004.611a.248.248,0,0,1,.277-.276h.234a.244.244,0,0,1,.275.276v.375a1.323,1.323,0,0,1-.025.243h.017a1.753,1.753,0,0,1,1.605-.995c.995,0,1.447.543,1.447,1.622v2.433a.244.244,0,0,1-.277.275h-.258a.247.247,0,0,1-.277-.275v-2.25c0-.594-.116-1.061-.794-1.061a1.46,1.46,0,0,0-1.413,1.564v1.747a.244.244,0,0,1-.277.275h-.258a.247.247,0,0,1-.277-.275Z" transform="translate(-2819.865 -2002.42)" fill="#fff"/>
          <path id="Path_4131" data-name="Path 4131" d="M2849.323,2004.234a1.794,1.794,0,0,1,1.823,2.015.282.282,0,0,1-.284.284h-2.826a1.428,1.428,0,0,0,1.464,1.43,1.739,1.739,0,0,0,1.01-.334.246.246,0,0,1,.376.092l.076.126a.247.247,0,0,1-.084.367,2.508,2.508,0,0,1-1.429.452,2.155,2.155,0,0,1-2.241-2.217A2.074,2.074,0,0,1,2849.323,2004.234Zm1.011,1.764a1.029,1.029,0,0,0-1.028-1.128,1.243,1.243,0,0,0-1.238,1.128Z" transform="translate(-2822.447 -2002.42)" fill="#fff"/>
          <path id="Path_4132" data-name="Path 4132" d="M2854.143,2007.829l.084-.117c.108-.142.217-.151.385-.059a1.849,1.849,0,0,0,1.037.343c.418,0,.719-.2.719-.56,0-.828-2.182-.552-2.182-1.981,0-.8.7-1.221,1.53-1.221a2.14,2.14,0,0,1,1.17.326.241.241,0,0,1,.092.368l-.075.125c-.084.151-.21.167-.369.091a1.682,1.682,0,0,0-.861-.242c-.4,0-.711.176-.711.535,0,.845,2.182.543,2.182,1.982,0,.718-.611,1.246-1.522,1.246a2.357,2.357,0,0,1-1.42-.46A.247.247,0,0,1,2854.143,2007.829Z" transform="translate(-2824.953 -2002.42)" fill="#fff"/>
          <path id="Path_4133" data-name="Path 4133" d="M2859.653,2007.829l.083-.117c.109-.142.218-.151.385-.059a1.853,1.853,0,0,0,1.037.343c.418,0,.719-.2.719-.56,0-.828-2.183-.552-2.183-1.981,0-.8.7-1.221,1.53-1.221a2.144,2.144,0,0,1,1.171.326.241.241,0,0,1,.091.368l-.075.125c-.084.151-.209.167-.368.091a1.684,1.684,0,0,0-.861-.242c-.4,0-.71.176-.71.535,0,.845,2.181.543,2.181,1.982,0,.718-.61,1.246-1.521,1.246a2.364,2.364,0,0,1-1.422-.46A.247.247,0,0,1,2859.653,2007.829Z" transform="translate(-2826.96 -2002.42)" fill="#fff"/>
          <path id="Path_4134" data-name="Path 4134" d="M2871.327,2004.683a6.119,6.119,0,0,1,.861-3.119.321.321,0,0,1,.326-.184h.126c.217,0,.293.126.192.318a6.38,6.38,0,0,0-.769,2.993,7.328,7.328,0,0,0,.786,3.3c.092.192.016.326-.193.326h-.142a.315.315,0,0,1-.309-.167A7.234,7.234,0,0,1,2871.327,2004.683Z" transform="translate(-2831.236 -2001.38)" fill="#fff"/>
          <path id="Path_4135" data-name="Path 4135" d="M2874.956,2004.611a.247.247,0,0,1,.276-.276h.234a.244.244,0,0,1,.276.276v.375a1.311,1.311,0,0,1-.025.243h.017a1.7,1.7,0,0,1,1.471-.995,1.16,1.16,0,0,1,1.271.962h.017a1.709,1.709,0,0,1,1.5-.962c.962,0,1.4.543,1.4,1.622v2.433a.243.243,0,0,1-.275.275h-.26a.247.247,0,0,1-.276-.275v-2.258c0-.594-.117-1.062-.744-1.062-.786,0-1.254.811-1.254,1.622v1.7a.241.241,0,0,1-.268.275h-.267a.241.241,0,0,1-.268-.275v-2.258c0-.552-.084-1.062-.737-1.062-.8,0-1.271.837-1.271,1.622v1.7a.243.243,0,0,1-.275.275h-.259a.247.247,0,0,1-.276-.275Z" transform="translate(-2832.558 -2002.42)" fill="#fff"/>
          <path id="Path_4136" data-name="Path 4136" d="M2886.555,2004.611a.248.248,0,0,1,.276-.276h.234a.244.244,0,0,1,.276.276v.375a1.335,1.335,0,0,1-.025.243h.017a1.7,1.7,0,0,1,1.471-.995,1.16,1.16,0,0,1,1.271.962h.016a1.712,1.712,0,0,1,1.5-.962c.961,0,1.4.543,1.4,1.622v2.433a.244.244,0,0,1-.277.275h-.259a.247.247,0,0,1-.276-.275v-2.258c0-.594-.117-1.062-.745-1.062-.786,0-1.254.811-1.254,1.622v1.7a.241.241,0,0,1-.268.275h-.268a.241.241,0,0,1-.268-.275v-2.258c0-.552-.084-1.062-.735-1.062-.8,0-1.271.837-1.271,1.622v1.7a.244.244,0,0,1-.277.275h-.259a.247.247,0,0,1-.276-.275Z" transform="translate(-2836.784 -2002.42)" fill="#fff"/>
          <path id="Path_4137" data-name="Path 4137" d="M2898.558,2004.69a6.36,6.36,0,0,0-.761-2.993c-.1-.192-.034-.318.176-.318h.142a.321.321,0,0,1,.326.184,6.112,6.112,0,0,1,.853,3.119,7.279,7.279,0,0,1-.853,3.452.338.338,0,0,1-.334.184h-.126c-.218,0-.284-.142-.192-.343A7.347,7.347,0,0,0,2898.558,2004.69Z" transform="translate(-2840.863 -2001.38)" fill="#fff"/>
        </g>
      </g>
      <g id="Group_1939" data-name="Group 1939" transform="translate(171.009 7.808)" opacity="0.248">
        <line id="Line_101" data-name="Line 101" y1="32.284" transform="translate(3.496 13.984)" fill="none" stroke="#fff" stroke-width="2"/>
        <g id="Group_1938" data-name="Group 1938">
          <g id="Group_1935" data-name="Group 1935" transform="translate(3.178)">
            <line id="Line_102" data-name="Line 102" y1="44.997" transform="translate(0.318)" fill="none" stroke="#fff" stroke-width="1" stroke-dasharray="3"/>
            <line id="Line_104" data-name="Line 104" x1="162.238" transform="translate(2.861 5.721)" fill="none" stroke="#fff" stroke-width="2"/>
            <line id="Line_103" data-name="Line 103" y1="44.997" transform="translate(167.641)" fill="none" stroke="#fff" stroke-width="1" stroke-dasharray="3"/>
            <path id="Polygon_6" data-name="Polygon 6" d="M2389.176,1983.543l5.721-3.5v6.992Z" transform="translate(-2389.176 -1977.823)" fill="#fff"/>
            <path id="Polygon_7" data-name="Polygon 7" d="M2516.9,1983.543l-5.721,3.5v-6.992Z" transform="translate(-2348.938 -1977.823)" fill="#fff"/>
          </g>
          <path id="Polygon_8" data-name="Polygon 8" d="M2387.672,1999.047l3.5,5.721h-6.992Z" transform="translate(-2384.175 -1984.746)" fill="#fff"/>
          <path id="Polygon_9" data-name="Polygon 9" d="M2387.672,2046.768l-3.5-5.721h6.992Z" transform="translate(-2384.175 -2000.048)" fill="#fff"/>
        </g>
      </g>
      <path id="Path_4157" data-name="Path 4157" d="M2711.156,2023.942l.242.544.3.544.483.483.544.423.6.423.726.242.725.242.786.121.846.06.846-.06.785-.121.726-.242.725-.242.6-.423.544-.423.484-.483.3-.544.242-.544" transform="translate(-2289.78 -1986.008)" fill="none" stroke="#fff" stroke-linecap="round" stroke-linejoin="bevel" stroke-width="1.141"/>
      <path id="Path_4158" data-name="Path 4158" d="M2721.7,2022.84l-.06-.6-.181-.544-.363-.544-.423-.483-.544-.484-.6-.363-.725-.3-.786-.242-.786-.121-.846-.061-.846.061-.786.121-.786.242-.725.3-.6.363-.544.484-.423.483-.363.544-.182.544-.06.6.06.6.182.544.363.544.423.483.544.484.6.363.725.3.786.242.786.121.846.061.846-.061.786-.121.786-.242.725-.3.6-.363.544-.484.423-.483.363-.544.181-.544Z" transform="translate(-2289.745 -1984.241)" fill="none" stroke="#fff" stroke-linecap="round" stroke-linejoin="bevel" stroke-width="1.141"/>
      <line id="Line_105" data-name="Line 105" x2="38.558" transform="translate(405.18 49.598)" fill="none" stroke="#fff" stroke-linecap="round" stroke-linejoin="round" stroke-width="1.141"/>
      <path id="Path_4159" data-name="Path 4159" d="M2685.675,2007.779v21.938" transform="translate(-2280.495 -1980.119)" fill="none" stroke="#fff" stroke-linecap="round" stroke-linejoin="round" stroke-width="1.141"/>
      <path id="Path_4160" data-name="Path 4160" d="M2724.234,2029.717v-21.938h-38.558" transform="translate(-2280.496 -1980.119)" fill="none" stroke="#fff" stroke-linecap="round" stroke-linejoin="round" stroke-width="1.141"/>
      <path id="Path_4161" data-name="Path 4161" d="M2685.675,2005.592v1.39" transform="translate(-2280.495 -1979.322)" fill="none" stroke="#fff" stroke-linecap="round" stroke-linejoin="round" stroke-width="1.141"/>
      <path id="Path_4162" data-name="Path 4162" d="M2724.234,2006.982v-1.39h-38.558" transform="translate(-2280.496 -1979.322)" fill="none" stroke="#fff" stroke-linecap="round" stroke-linejoin="round" stroke-width="1.141"/>
      <path id="Path_4163" data-name="Path 4163" d="M2134.657,2006.257v-.665H2096.1v1.39h38.558Z" transform="translate(-2065.681 -1979.322)" fill="none" stroke="#fff" stroke-linecap="round" stroke-linejoin="round" stroke-width="1.141"/>
      <path id="Path_4164" data-name="Path 4164" d="M2156.759,2029.717v-21.938" transform="translate(-2087.782 -1980.119)" fill="none" stroke="#fff" stroke-linecap="round" stroke-linejoin="round" stroke-width="1.141"/>
      <path id="Path_4165" data-name="Path 4165" d="M2096.1,2007.779v21.938h38.558" transform="translate(-2065.681 -1980.119)" fill="none" stroke="#fff" stroke-linecap="round" stroke-linejoin="round" stroke-width="1.141"/>
      <path id="Path_4166" data-name="Path 4166" d="M2189.846,2014.072l.484-.3.483-.242.483-.3.484-.3.544-.3.483-.242.484-.3.483-.242.484-.3.483-.3.483-.242.544-.3.483-.242.484-.3.483-.242.484-.3.483-.242.484-.3.544-.242.483-.242.483-.3.484-.242.484-.242.483-.242.544-.242.484-.242.483-.241.483-.242.484-.241.484-.242.483-.242.544-.242.484-.242.483-.181.484-.242.483-.242.484-.181.483-.242.544-.181.484-.181.483-.242.483-.181.484-.181.484-.182.483-.181.544-.181.484-.181.483-.181.483-.121.484-.181.484-.181.543-.121.484-.181.484-.121.483-.121.484-.121.483-.181.484-.121.544-.121.484-.121.483-.06.483-.121.484-.121.483-.061.484-.121.544-.061.483-.121.484-.06.483-.061.483-.061.483-.06.544-.061.483-.06.483-.06h.484l.484-.06h.483l.483-.06h3.989l.483.06h.483l.484.06h.483l.483.06.484.06.544.061.483.06.484.061.483.061.484.06.483.121.544.061.484.121.483.061.483.121.483.121.484.121.483.06.544.121.484.121.483.181.483.121.483.121.484.121.484.181.544.121.484.181.483.181.483.121.483.181.484.181.543.181.484.181.484.182.484.181.483.242.483.181.484.181.544.242.483.181.484.242.483.181.483.242.483.242.484.181.544.242.484.242.484.242.483.241.483.242.484.241.483.242.544.242.484.242.484.242.484.3.483.242.484.242.544.3.483.242.484.242.484.3.484.242.483.3.483.242.544.3.483.3.484.242.483.3.484.242.483.3.483.3.544.242.483.3.483.3.483.3.484.242.483.3.544.3.483.3.484.242.483.3.483.3.484.242.483.3.544.3.483.3.484.242.483.3.483.3.484.242.483.3.544.3.483.242.484.3.483.242.483.3.484.242.544.3.483.242.484.3.483.242.483.242.484.3.483.242.544.241.484.242.484.3.483.242.483.242.484.242.483.242.544.242.484.242.483.181.483.242.484.242.483.242.483.182.544.241.484.181.483.242.484.181.483.181.483.242.544.181.484.181.483.181.483.181.484.181.483.181.483.181.544.121.484.181.483.182.483.121.484.121.483.182.483.121.544.121.484.121.483.121.483.121.484.121.483.121.544.121.484.061.483.121.483.06.483.121.484.06.483.06.544.06.483.121h.484l.483.06.483.06.484.061h.483l.544.06h.483l.483.06h2.962" transform="translate(-2099.838 -1977.105)" fill="none" stroke="#fff" stroke-linecap="round" stroke-linejoin="round" stroke-width="1.141"/>
      <path id="Path_4167" data-name="Path 4167" d="M2454.257,2014.072l.483-.3.544-.242.483-.3.483-.3.484-.3.483-.242.483-.3.544-.3.484-.242.483-.3.483-.242.484-.3.483-.242.483-.3.544-.242.484-.3.483-.242.483-.3.483-.242.484-.242.483-.3.544-.242.483-.242.483-.242.484-.242.483-.242.484-.3.483-.182.544-.241.483-.242.484-.242.483-.242.483-.242.484-.181.544-.242.484-.242.483-.181.483-.242.483-.181.483-.181.484-.242.544-.181.483-.181.484-.182.483-.181.483-.181.484-.181.483-.181.544-.121.483-.181.484-.181.483-.121.483-.181.484-.121.544-.121.483-.181.483-.121.484-.121.483-.121.483-.121.484-.06.544-.121.483-.121.483-.061.484-.121.484-.061.483-.121.484-.06.544-.061.483-.061.483-.06.484-.061.483-.06.483-.06h.544l.483-.06h.483l.484-.06h3.928l.484.06h.483l.544.06h.483l.483.06.483.06.483.061.484.06.483.061.544.061.483.06.483.121.483.061.483.121.484.061.544.121.484.121.483.06.483.121.483.121.484.121.483.181.544.121.483.121.484.121.483.181.483.121.484.181.483.181.544.121.483.181.484.181.484.181.483.181.483.182.544.181.483.242.484.181.483.181.484.242.483.181.483.242.544.181.483.242.483.181.484.242.484.242.483.242.484.242.544.241.483.242.483.241.484.242.484.242.483.242.484.242.544.3.483.242.484.242.483.3.484.242.483.242.544.3.484.242.483.3.484.242.483.3.484.3.483.242.544.3.483.242.483.3.483.3.484.3.483.242.484.3.544.3.483.242.483.3.483.3.483.3.484.242.544.3.484.3.483.242.484.3.483.3.483.3.484.242.544.3.483.3.484.242.484.3.483.3.483.242.484.3.544.242.483.3.484.242.484.3.483.242.484.3.484.242.544.242.483.3.484.242.483.241.483.242.483.3.544.242.483.242.483.242.484.242.484.242.483.242.484.181.544.242.483.242.484.242.484.182.484.241.483.181.484.242.544.181.483.181.484.242.483.181.484.181.483.181.544.181.484.181.483.181.483.181.483.121.484.181.483.182.544.121.483.121.484.182.483.121.483.121.484.121.483.121.544.121.484.121.483.121.483.121.484.061.484.121.543.06.484.121.484.06.483.06.483.06.483.06.484.061.544.06.483.06.484.061h.483l.483.06h.483l.484.06h2.961" transform="translate(-2196.177 -1977.105)" fill="none" stroke="#fff" stroke-linecap="round" stroke-linejoin="round" stroke-width="1.141"/>
      <path id="Path_4168" data-name="Path 4168" d="M2156.759,2036.161l.363-.121.3-.121.3-.121.363-.181.3-.121.363-.121.3-.121.363-.181.3-.121.3-.121.363-.181.3-.121.363-.181.3-.121.363-.181.3-.121.3-.181.363-.121.3-.181.363-.121.3-.181.362-.181.3-.121.3-.181.363-.181.3-.121.363-.181.3-.181.363-.181.3-.121.3-.181.363-.181.3-.182.363-.181.3-.181.362-.121.3-.181.363-.181.3-.181.3-.181.362-.181.3-.181.363-.181.3-.181.363-.181.3-.181.3-.181.363-.181.3-.181.363-.181.3-.181.363-.242.3-.181.3-.182.362-.181.3-.181.362-.181.3-.181.363-.181.3-.242.3-.181.363-.181.3-.181.363-.181" transform="translate(-2087.782 -1986.562)" fill="none" stroke="#fff" stroke-linecap="round" stroke-linejoin="round" stroke-width="1.141"/>
      <path id="Path_4169" data-name="Path 4169" d="M2255.925,1999.507h3.445l.484.06h.543l.484.06h.483l.484.06.483.06.483.061.484.06.544.061.483.061.484.06.483.06.483.121.484.061.483.121.544.06.484.121.484.121.483.121.483.121.484.121.483.121.544.121.483.121.484.121.483.181.483.121.484.181.544.181.483.121.483.181.484.181.484.181.483.181.484.181.544.181.483.181.483.242.484.181.484.181.483.242.484.181.544.242.483.181.483.242.484.242.484.242.483.181.544.242.483.242.483.242.483.242.483.242.484.242.484.242.544.3.483.242.483.242.483.242.483.3.484.242.483.3.544.242.483.3.483.241.483.3.484.242.483.3.484.242.544.3.483.3.483.242.483.3.484.3.483.242.544.3.483.3.484.242.484.3.483.3.484.3.483.242.544.3.483.3.484.3.483.242.483.3.484.3.483.242.544.3.484.3.483.242.483.3.483.3.484.242.544.3.483.3.484.242.483.3.484.242.483.242.484.3.544.242.483.3.483.242.484.242.484.3.483.242.483.242.544.242.483.242.484.242.483.242.484.242.483.242.483.242.544.242.483.181.484.242.483.242.484.181.483.242.544.181.483.242.483.181.483.181.484.242.483.181.484.181.544.181.483.182.483.181.483.121.483.181.484.181.483.121.544.181.483.121.483.181.483.121.484.121.484.181.544.121.483.121.484.06.483.121.483.121.484.121.484.06.544.121.483.06.484.121.483.06.484.06.483.06.483.061.544.06.483.06.484.06h.484l.484.06h.483l.544.06h3.928l.484-.06h.484l.483-.06h.483l.484-.06.544-.06.483-.06.484-.061.483-.06.484-.06.483-.06.483-.121.544-.06.483-.121.483-.06.484-.121.484-.121.483-.06.544-.121.483-.121.483-.121.483-.121.484-.181.484-.121.483-.121.544-.181.483-.121.484-.181.484-.181.483-.121.484-.181.483-.181.544-.182.483-.181.484-.181.484-.181.483-.181.483-.242.544-.181.484-.181.483-.242.484-.181.484-.242.483-.242.483-.181.544-.242.483-.242.484-.242.483-.242.483-.242.484-.242.483-.242.544-.242.483-.242.484-.242.484-.242.483-.242.483-.3.483-.242.544-.242.484-.3.484-.242.483-.3.484-.242.483-.3.544-.242.484-.3.483-.242.484-.3.484-.3.483-.242.483-.3.544-.3.483-.242.483-.3.484-.3.484-.242" transform="translate(-2123.914 -1977.105)" fill="none" stroke="#fff" stroke-linecap="round" stroke-linejoin="round" stroke-width="1.141"/>
      <line id="Line_106" data-name="Line 106" y1="0.302" x2="0.483" transform="translate(257.596 38.901)" fill="none" stroke="#fff" stroke-linecap="round" stroke-linejoin="round" stroke-width="1.141"/>
      <path id="Path_4170" data-name="Path 4170" d="M2520.431,1999.507h3.687l.423.06h.785l.423.06.423.06h.423l.363.06.423.061h.423l.423.06.423.061.363.061.423.06.423.06.423.121.363.061.423.06.423.061.423.121.423.06.362.121.423.061.423.121.423.121.423.061.363.121.423.121.423.121.423.121.423.121.363.121.423.121.423.121.423.121.423.121.362.181.423.121.423.121.423.181.363.121.423.181.423.121.423.181.423.181.363.181.423.121.423.181.423.182.423.181.363.181.423.181.423.181.423.181.423.181.363.181.423.181.423.181.423.242.363.181.423.181.423.182.423.241.423.181.363.242.423.181.423.242.423.181.423.242.362.181.423.242.423.181.423.242.423.242.363.181.423.242.423.241.423.242.423.181.363.242.423.242.423.242.423.242.363.181.423.242.423.242.423.242.423.242.363.242.423.242.423.242.423.242.423.242.363.181.423.242.423.242.423.242.423.242.363.242.423.242.423.242.423.242.423.242.362.242.423.242.423.242.423.242.363.242.423.181.423.242.423.242.423.242.363.242.423.242.423.242.423.181.423.242.363.242.423.242.423.242.423.182.423.242.363.242.423.181.423.242.423.242.363.181.423.242.423.181.423.242.423.181.363.242.423.181.423.242.423.181.423.181.363.242.423.181.423.181.423.181.423.181.362.181.423.242.423.182.423.181.423.181.363.121.423.181.423.181.423.182.363.181.423.121.423.181.423.181.423.121.363.181.423.121.423.181.423.121.423.121.363.181.423.121.423.121.423.121.423.121.363.121.423.121.423.121.423.121.363.121.423.121.423.121.423.06.423.121.363.061.423.121.424.06.423.121.423.06.363.06.423.06.423.121.423.06.423.06.363.06.423.06.423.061h.423l.423.06.362.06h.423l.423.06h.423l.363.06h.423l.423.06h4.109l.423-.06h.423l.363-.06h.423l.423-.06h.423l.363-.06.423-.06.423-.061.423-.06.423-.06.362-.06.423-.06.423-.061.423-.06.423-.06.363-.06.423-.121.423-.06.423-.121.423-.06.363-.121.423-.06.423-.121.423-.121.423-.121.363-.061.423-.121.423-.121.423-.121.363-.121.423-.121.423-.121.423-.181.423-.121.363-.121.423-.182.423-.121.423-.121.423-.181.363-.121" transform="translate(-2220.288 -1977.105)" fill="none" stroke="#fff" stroke-linecap="round" stroke-linejoin="round" stroke-width="1.141"/>
      <line id="Line_107" data-name="Line 107" y1="0.181" x2="0.423" transform="translate(404.757 49.598)" fill="none" stroke="#fff" stroke-linecap="round" stroke-linejoin="round" stroke-width="1.141"/>
      <path id="Path_4171" data-name="Path 4171" d="M2156.759,2007.779l.484.181.484.242.544.181.483.242.484.242.483.242.483.242.483.242.484.241.544.242.484.242.483.242.484.242.484.242.483.3.483.242.544.242.483.3.484.242.484.242.483.3.483.242.544.3.483.242.484.3.483.3.484.242.483.3.483.242.544.3.483.3.484.242.484.3.483.3.483.3.484.242.544.3.483.3.484.3.483.242.484.3.483.3.484.241.544.3.483.3.484.3.483.242.484.3.483.3.544.242.483.3.484.3.483.242.483.3.484.242.483.3.544.242.483.3.484.242.483.3.483.242.484.242.483.3.544.242.484.242.483.242.484.3.483.242.484.242.544.242.484.242.483.242.484.242.484.181.483.242.484.242.544.242.484.182.483.242.484.181.483.242.484.181.484.181.544.242.484.182.483.181.484.181.483.181.484.182.483.182.544.181.484.121.484.181.483.121.484.181.483.121.544.181.483.121.484.121.484.121.483.121.483.121.484.121.544.121.483.12.484.061.483.121.484.061.484.121.483.06.544.06.483.061.483.06.484.06.484.06.483.061.544.06h.483l.483.06h.483l.484.06h3.445" transform="translate(-2087.782 -1980.119)" fill="none" stroke="#fff" stroke-linecap="round" stroke-linejoin="round" stroke-width="1.141"/>
      <path id="Path_4172" data-name="Path 4172" d="M2322.1,2014.072l.483-.3.483-.242.483-.3.483-.3.484-.3.484-.242.544-.3.484-.3.484-.242.483-.3.483-.242.484-.3.483-.242.544-.3.484-.242.484-.3.483-.242.484-.3.484-.242.544-.242.484-.3.483-.242.483-.242.484-.242.483-.242.484-.242.544-.3.484-.242.483-.181.484-.242.483-.242.483-.242.484-.242.544-.181.483-.242.484-.242.483-.181.483-.242.483-.181.544-.181.484-.242.483-.181.484-.181.483-.182.484-.181.483-.181.544-.181.484-.181.483-.121.484-.181.483-.181.484-.121.484-.181.543-.121.484-.121.483-.181.484-.121.484-.121.483-.121.484-.121.544-.06.484-.121.483-.121.484-.061.484-.121.483-.061.544-.121.483-.06.484-.061.483-.061.484-.06.483-.061.483-.06.544-.06h.483l.484-.06h.483l.484-.06h3.928l.544.06h.484l.483.06h.484l.484.06.483.06.484.061.544.06.483.061.484.061.484.06.483.121.484.061.483.121.544.061.483.121.484.121.483.06.484.121.484.121.483.121.544.181.483.121.484.121.483.121.483.181.484.121.544.181.484.181.483.121.484.181.483.181.483.181.484.181.544.182.483.181.483.242.484.181.483.181.484.242.484.181.544.242.483.181.484.242.483.181.483.242.484.242.544.242.483.242.484.241.484.242.483.241.483.242.483.242.544.242.483.242.483.3.484.242.483.242.483.3.483.242.544.242.483.3.483.242.484.3.483.242.483.3.544.3.483.242.483.3.483.242.484.3.483.3.483.242.544.3.483.3.483.3.484.242.483.3.484.3.483.3.544.242.483.3.483.3.483.242.484.3.484.3.483.3.544.242.483.3.483.3.483.242.483.3.484.3.543.242.484.3.483.242.483.3.483.242.483.3.484.242.544.3.484.242.484.242.483.3.483.242.483.241.484.242.544.3.483.242.484.242.483.242.483.242.483.242.544.242.483.181.483.242.484.242.483.242.483.182.483.241.544.181.483.242.483.181.484.181.484.242.483.181.483.181.544.181.483.181.483.181.484.181.483.181.483.121.483.181.544.182.483.121.483.121.484.182.483.121.483.121.544.121.483.121.483.121.483.121.483.121.484.121.483.061.544.121.483.06.483.121.483.06.483.06.484.06.484.06.544.061.483.06.483.06.483.061h.483l.484.06h.544l.484.06h2.961" transform="translate(-2148.025 -1977.105)" fill="none" stroke="#fff" stroke-linecap="round" stroke-linejoin="round" stroke-width="1.141"/>
      <path id="Path_4173" data-name="Path 4173" d="M2586.51,2014.072l.483-.3.483-.242.544-.3.483-.3.484-.3.483-.242.484-.3.483-.3.483-.242.544-.3.483-.242.484-.3.484-.242.483-.3.484-.242.483-.3.544-.242.483-.3.484-.242.483-.242.483-.3.484-.242.543-.242.484-.242.483-.242.484-.242.483-.3.483-.242.484-.181.543-.242.484-.242.483-.242.483-.242.483-.181.483-.242.484-.242.544-.181.484-.242.483-.181.483-.181.483-.242.483-.181.544-.181.484-.182.483-.181.484-.181.483-.181.483-.181.483-.121.544-.181.483-.181.483-.121.484-.181.483-.121.483-.121.483-.181.544-.121.483-.121.483-.121.484-.121.483-.121.483-.06.483-.121.544-.121.484-.061.483-.061.484-.121.483-.06.483-.061.544-.061.483-.06.484-.061.483-.06.484-.06h.483l.483-.06h.544l.483-.06h3.928l.483.06h.483l.484.06h.544l.484.06.483.06.483.061.483.06.483.061.484.061.544.06.484.121.483.061.483.121.483.061.483.121.484.121.544.06.484.121.483.121.483.121.483.181.483.121.484.121.544.181.483.121.484.121.483.181.483.181.483.121.544.181.483.181.483.181.484.181.483.182.483.181.484.242.544.181.484.181.483.242.484.181.483.242" transform="translate(-2244.365 -1977.105)" fill="none" stroke="#fff" stroke-linecap="round" stroke-linejoin="round" stroke-width="1.141"/>
      <path id="Path_4174" data-name="Path 4174" d="M2156.759,2005.592l.423.181.423.121.363.181.423.181.423.181.423.121.423.181.363.181.423.181.423.181.423.182.423.181.363.242.423.181.423.181.423.181.423.181.363.242.423.181.423.181.423.242.363.181.423.242.423.181.423.242.423.181.363.242.423.182.423.242.423.242.423.181.363.242.423.242.423.242.423.181.423.242.363.242.423.242.423.182.423.242.423.242.363.242.423.242.423.242.423.242.363.242.423.242.423.181.423.242.423.242.363.242.423.242.423.242.423.242.423.242.363.242.423.242.423.242.423.242.423.242.363.242.423.242.423.242.423.181.363.242.423.242.423.242.423.242.423.242.362.242.423.242.423.181.423.242.423.242.363.242.423.181.423.242.423.242.423.242.363.182.423.241.423.242.423.181.423.242.363.181.423.242.423.181.423.242.363.181.423.242.423.181.423.242.423.181.363.181.423.181.423.242.423.181.423.181.363.181.423.181.423.181.423.181.423.181.363.181.423.181.423.181.423.181.362.121.423.181.423.182.423.121.423.181.362.121.423.182.423.121.423.182.423.121.363.121.423.121.423.181.423.121.423.121.363.121.423.121.423.121.423.121.423.061.362.121.423.121.423.06.423.121.363.121.423.06.423.121.423.06.423.06.363.06.423.121.423.06.423.061.423.06.363.06.423.06.423.061.423.06h.423l.363.061.423.061h.423l.423.06h.786l.423.06h3.687l.423-.06h.846l.363-.06h.423l.423-.061.423-.061h.423l.362-.06.423-.061.423-.06.423-.06.363-.06.423-.061.423-.06.423-.06.423-.06.363-.121.423-.06.423-.06.423-.121.423-.061.362-.121.423-.121.423-.06.423-.121.423-.121.362-.121.423-.121.423-.121.423-.121.423-.121.363-.121.423-.121.423-.121.423-.121.363-.181.423-.121.423-.121.423-.181.423-.121.363-.181.423-.181.423-.121.423-.181.423-.181.363-.181.423-.121.423-.181.423-.181.423-.181.363-.181.423-.182.423-.181.423-.181.363-.181.423-.242.423-.182.423-.181.423-.181.363-.242.423-.181.423-.181.423-.242.423-.181.363-.242.423-.181.423-.242.423-.181.423-.242.363-.181.423-.242.423-.242.423-.181.423-.242.363-.242.423-.181.423-.242.423-.242.363-.242.423-.242.423-.181.423-.242.423-.242.363-.242.423-.242.423-.242.423-.242.423-.181.363-.242.423-.242.423-.242.423-.242" transform="translate(-2087.782 -1979.322)" fill="none" stroke="#fff" stroke-linecap="round" stroke-linejoin="round" stroke-width="1.141"/>
      <line id="Line_108" data-name="Line 108" y1="0.242" x2="0.423" transform="translate(173.651 38.901)" fill="none" stroke="#fff" stroke-linecap="round" stroke-linejoin="round" stroke-width="1.141"/>
      <path id="Path_4175" data-name="Path 4175" d="M2388.177,1999.507h3.928l.483.06h.484l.544.06.484.06.483.06h.483l.483.061.483.06.484.121.544.06.484.06.483.121.483.061.483.121.484.06.544.121.483.121.484.121.483.121.483.121.483.121.483.121.544.121.483.121.483.181.483.121.484.181.483.181.483.121.544.181.483.181.483.181.484.181.483.181.484.181.483.181.544.242.483.181.483.181.484.242.483.181.483.242.544.181.483.242.483.242.483.181.484.242.483.242.483.242.544.242.483.242.483.242.483.242.484.242.484.3.483.242.544.242.483.3.483.242.483.242.484.3.483.242.544.3.484.241.483.3.483.242.483.3.484.242.483.3.544.3.484.242.483.3.484.3.483.242.484.3.484.3.544.242.484.3.483.3.483.3.483.242.483.3.544.3.483.3.484.242.483.3.483.3.483.242.483.3.544.3.483.242.483.3.484.3.483.242.484.3.483.3.544.242.483.3.483.242.484.242.484.3.483.242.483.3.544.242.483.242.483.3.484.242.483.242.483.242.544.242.483.242.483.242.483.242.484.242.483.242.484.242.544.181.483.242.484.242.483.181.484.242.483.181.483.242.544.181.483.181.483.242.483.181.484.181.484.181.544.182.484.181.483.181.484.121.483.181.484.181.484.121.544.121.484.181.483.121.483.121.484.121.483.181.484.121.544.06.484.121.483.121.484.121.483.06.483.121.484.06.544.121.484.06.483.06.484.06.483.061.483.06.544.06.483.06h.484l.484.06h.483l.483.06h3.928l.544-.06h.483l.483-.06h.484l.483-.06.484-.06.544-.06.483-.061.484-.06.483-.06.484-.06.483-.121.484-.06.544-.121.483-.06.483-.121.483-.121.484-.06.483-.121.483-.121.544-.121.483-.121.484-.181.483-.121.484-.121.484-.181.483-.121.544-.181.483-.181.484-.121.483-.181.484-.181.484-.182.544-.181.484-.181.483-.181.484-.181.483-.242.484-.181.483-.181.544-.242.484-.181.483-.242.484-.242.483-.181.484-.242.483-.242.544-.242.484-.242.484-.242.483-.242.483-.242.484-.242.544-.242.483-.242.483-.242.484-.242.484-.3.483-.242.484-.242.544-.3.483-.242.483-.3.484-.242.484-.3.483-.242.483-.3.544-.242.484-.3.483-.3.484-.242.483-.3.483-.3.544-.242.484-.3.484-.3.483-.242" transform="translate(-2172.101 -1977.105)" fill="none" stroke="#fff" stroke-linecap="round" stroke-linejoin="round" stroke-width="1.141"/>
      <line id="Line_109" data-name="Line 109" y1="0.302" x2="0.483" transform="translate(341.662 38.901)" fill="none" stroke="#fff" stroke-linecap="round" stroke-linejoin="round" stroke-width="1.141"/>
      <path id="Path_4176" data-name="Path 4176" d="M2652.589,1999.507h3.989l.3.06h.665l.3.06h.363l.3.06h.363l.3.06h.363l.3.061.3.06h.363l.3.061.362.061.3.06.363.06.3.06.3.061.363.061.3.06.363.061.3.06.363.06.3.06.3.06.363.06.3.121.363.06.3.06.363.121.3.06.362.061.3.121.3.061.362.121.3.121.363.06.3.121.363.061.3.121.3.121.363.121.3.061.363.121.3.121.363.121.3.121.3.121.363.121.3.121.362.121.3.121" transform="translate(-2268.44 -1977.105)" fill="none" stroke="#fff" stroke-linecap="round" stroke-linejoin="round" stroke-width="1.141"/>
      <text id="_360_Pitch_mm_" data-name="360˚ Pitch (mm)" transform="translate(201.412 -18.999)" fill="#fff" font-size="17" font-family="ArialMT, Arial"><tspan x="0" y="15">360˚ Pitch (mm)</tspan></text>
    </g>
    <text id="Length_mm_" data-name="Length (mm)" transform="translate(981.899 4868)" fill="#fff" font-size="17" font-family="ArialMT, Arial"><tspan x="0" y="15">Length (mm)</tspan></text>
    <text id="Width_mm_" data-name="Width (mm)" transform="translate(757.898 4876.045) rotate(-90)" fill="#fff" font-size="17" font-family="ArialMT, Arial"><tspan x="0" y="15">Width (mm)</tspan></text>
  </g>
</svg>
