<svg id="spec-and-material" xmlns="http://www.w3.org/2000/svg" width="85.702" height="109.698" viewBox="0 0 85.702 109.698">
  <rect id="Rectangle_1519" data-name="Rectangle 1519" width="7.753" height="18.874" transform="translate(15.697 3.214)" fill="#bb9968"/>
  <rect id="Rectangle_1520" data-name="Rectangle 1520" width="7.753" height="18.874" transform="translate(38.666 3.214)" fill="#bb9968"/>
  <rect id="Rectangle_1521" data-name="Rectangle 1521" width="7.753" height="18.874" transform="translate(63.036 3.214)" fill="#bb9968"/>
  <g id="Group_2126" data-name="Group 2126">
    <path id="Path_4212" data-name="Path 4212" d="M171.086,851.379l10.017-12.05a1.607,1.607,0,0,0-2.472-2.054L170.045,847.6l-1.877-3.048a1.607,1.607,0,1,0-2.737,1.685l3.05,4.954A1.607,1.607,0,0,0,171.086,851.379Z" transform="translate(-152.405 -804.462)" fill="#6b6b6b"/>
    <path id="Path_4213" data-name="Path 4213" d="M165.433,945.238l3.05,4.954a1.607,1.607,0,0,0,2.6.185L181.1,938.327a1.607,1.607,0,0,0-2.472-2.054L170.046,946.6l-1.877-3.048a1.607,1.607,0,1,0-2.736,1.685Z" transform="translate(-152.406 -882.25)" fill="#6b6b6b"/>
    <path id="Path_4214" data-name="Path 4214" d="M165.433,1044.906l3.05,4.954a1.607,1.607,0,0,0,2.6.185l10.017-12.051a1.607,1.607,0,0,0-2.472-2.054l-8.586,10.329-1.877-3.048a1.607,1.607,0,1,0-2.736,1.685Z" transform="translate(-152.406 -960.563)" fill="#6b6b6b"/>
    <path id="Path_4215" data-name="Path 4215" d="M189.6,894.29a1.607,1.607,0,0,0-1.607,1.607v11.7a2.467,2.467,0,0,1-2.464,2.464H111.183a2.467,2.467,0,0,1-2.464-2.464V837.171a1.607,1.607,0,1,0-3.214,0v70.423a5.684,5.684,0,0,0,5.678,5.678h74.346a5.684,5.684,0,0,0,5.678-5.678V895.9A1.607,1.607,0,0,0,189.6,894.29Z" transform="translate(-105.505 -803.574)" fill="#6b6b6b"/>
    <path id="Path_4216" data-name="Path 4216" d="M185.529,698.637h-7.861V692a5.742,5.742,0,0,0-11.484,0v6.64H154.1V692a5.742,5.742,0,0,0-11.484,0v6.64H130.527V692a5.742,5.742,0,0,0-11.484,0v6.64h-7.86a5.684,5.684,0,0,0-5.678,5.678v8.038a1.607,1.607,0,1,0,3.214,0v-8.038a2.467,2.467,0,0,1,2.464-2.464h7.86V704.4a5.742,5.742,0,0,0,11.484,0v-2.552h12.087V704.4a5.742,5.742,0,0,0,11.484,0v-2.552h12.087V704.4a5.742,5.742,0,0,0,11.484,0v-2.552h7.86a2.467,2.467,0,0,1,2.464,2.464v66.764a1.607,1.607,0,1,0,3.214,0V704.315a5.684,5.684,0,0,0-5.678-5.678ZM127.313,704.4a2.528,2.528,0,1,1-5.056,0V692a2.528,2.528,0,0,1,5.056,0Zm23.57,0a2.528,2.528,0,1,1-5.056,0V692a2.528,2.528,0,0,1,5.056,0Zm23.571,0a2.528,2.528,0,1,1-5.056,0V692a2.528,2.528,0,0,1,5.056,0Z" transform="translate(-105.505 -686.255)" fill="#6b6b6b"/>
    <path id="Path_4217" data-name="Path 4217" d="M252.779,874.508h33.852a5.035,5.035,0,0,0,0-10.07H252.779a5.035,5.035,0,0,0,0,10.07Zm0-6.856h33.852a1.821,1.821,0,0,1,0,3.642H252.779a1.821,1.821,0,0,1,0-3.642Z" transform="translate(-217.269 -826.262)" fill="#6b6b6b"/>
    <path id="Path_4218" data-name="Path 4218" d="M252.779,973.721h33.852a5.035,5.035,0,1,0,0-10.07H252.779a5.035,5.035,0,1,0,0,10.07Zm0-6.856h33.852a1.821,1.821,0,1,1,0,3.642H252.779a1.821,1.821,0,1,1,0-3.642Z" transform="translate(-217.269 -904.218)" fill="#6b6b6b"/>
    <path id="Path_4219" data-name="Path 4219" d="M252.779,1072.933h33.852a5.035,5.035,0,1,0,0-10.07H252.779a5.035,5.035,0,0,0,0,10.07Zm0-6.856h33.852a1.821,1.821,0,0,1,0,3.642H252.779a1.821,1.821,0,0,1,0-3.642Z" transform="translate(-217.269 -982.173)" fill="#6b6b6b"/>
  </g>
</svg>
