<svg id="united-kingdom" xmlns="http://www.w3.org/2000/svg" width="145.747" height="98.731" viewBox="0 0 145.747 98.731">
  <path id="Path_4523" data-name="Path 4523" d="M139.43,184.869H18.131A9.873,9.873,0,0,1,8.258,175V100.712a9.873,9.873,0,0,1,9.873-9.873h121.3a9.873,9.873,0,0,1,9.873,9.873V175A9.873,9.873,0,0,1,139.43,184.869Z" transform="translate(-5.906 -88.488)" fill="#6d85b5"/>
  <path id="Path_4524" data-name="Path 4524" d="M139.116,90.839h-12.7L78.78,122.6,31.142,90.839H17.085a8.829,8.829,0,0,0-8.828,8.828V106.1l47.638,31.758L8.258,169.612V175a9.873,9.873,0,0,0,9.873,9.873H31.142L78.78,153.11l47.638,31.758h13.325a9.56,9.56,0,0,0,9.56-9.56v-5.7l-47.638-31.758L149.3,106.1v-5.07A10.187,10.187,0,0,0,139.116,90.839Z" transform="translate(-5.906 -88.488)" fill="#fff"/>
  <path id="Path_4525" data-name="Path 4525" d="M11.833,182.484a10.039,10.039,0,0,0,6.506,2.383h5.175l62.894-41.929,59.319,39.546,3.572-7.563s0-.006,0-.009L86.32,132.826l59.407-39.6a10.039,10.039,0,0,0-6.506-2.383h-5.175L71.155,132.77,11.833,93.221a10.058,10.058,0,0,0-3.575,7.7v.1l62.813,41.976Z" transform="translate(-5.906 -88.487)" fill="#e27042"/>
  <g id="Group_2324" data-name="Group 2324">
    <path id="Path_4526" data-name="Path 4526" d="M74.232,129.214a2.347,2.347,0,0,1-1.3-.395L13.606,89.27a2.351,2.351,0,1,1,2.608-3.912l58.018,38.679,61.587-41.062a2.351,2.351,0,0,1,2.608,3.912L75.536,128.818A2.348,2.348,0,0,1,74.232,129.214Z" transform="translate(-8.984 -82.58)" fill="#707070"/>
    <path id="Path_4527" data-name="Path 4527" d="M339.56,177.348a2.336,2.336,0,0,1-1.3-.4l-62.983-42.088a2.351,2.351,0,0,1,0-3.91l59.407-39.6a2.351,2.351,0,0,1,2.608,3.912l-56.476,37.651,60.054,40.131a2.351,2.351,0,0,1-1.308,4.306Z" transform="translate(-196.167 -88.57)" fill="#707070"/>
    <path id="Path_4528" data-name="Path 4528" d="M55.947,312.236a2.351,2.351,0,0,1-1.306-4.307L117.535,266a2.35,2.35,0,0,1,2.608,0l59.319,39.546a2.351,2.351,0,0,1-2.608,3.912l-58.015-38.676-61.59,41.06A2.34,2.34,0,0,1,55.947,312.236Z" transform="translate(-38.338 -213.505)" fill="#707070"/>
    <path id="Path_4529" data-name="Path 4529" d="M5.928,204.5A2.351,2.351,0,0,1,4.622,200.2l56.308-37.538L1.044,122.64a2.351,2.351,0,0,1,2.612-3.909l62.813,41.976a2.351,2.351,0,0,1,0,3.91L7.229,204.11A2.34,2.34,0,0,1,5.928,204.5Z" transform="translate(0.001 -108.156)" fill="#707070"/>
  </g>
  <path id="Path_4530" data-name="Path 4530" d="M149.3,125.16H91.475V90.839H66.087V125.16H8.259v25.388H66.087v34.321H91.475V150.548H149.3Z" transform="translate(-5.907 -88.488)" fill="#fff"/>
  <path id="Path_4531" data-name="Path 4531" d="M149.3,131.036H85.6v-40.2H71.964v40.2H8.259v13.634H71.964v40.2H85.6v-40.2H149.3Z" transform="translate(-5.907 -88.488)" fill="#e27042"/>
  <path id="Path_4532" data-name="Path 4532" d="M133.314,82.581H12.434A12.447,12.447,0,0,0,0,95.014V168.88a12.447,12.447,0,0,0,12.433,12.433h120.88a12.447,12.447,0,0,0,12.433-12.433V95.014A12.447,12.447,0,0,0,133.314,82.581Zm7.731,12.433v27.765h-59v-35.5h51.272A7.74,7.74,0,0,1,141.045,95.014ZM12.434,87.282H63.706v35.5H4.7V95.014A7.74,7.74,0,0,1,12.434,87.282ZM4.7,168.879V141.114h59v35.5H12.434A7.74,7.74,0,0,1,4.7,168.879Zm128.611,7.732H82.042v-35.5H124.59a2.351,2.351,0,1,0,0-4.7h-44.9a2.35,2.35,0,0,0-2.351,2.351v37.847H68.408V138.764a2.35,2.35,0,0,0-2.351-2.351H4.7V127.48H66.057a2.35,2.35,0,0,0,2.351-2.351V87.282H77.34V125.13a2.35,2.35,0,0,0,2.351,2.351h61.354v8.933h-7.052a2.351,2.351,0,0,0,0,4.7h7.052v27.765A7.741,7.741,0,0,1,133.314,176.611Z" transform="translate(0 -82.581)" fill="#707070"/>
</svg>
